<svg xmlns="http://www.w3.org/2000/svg" viewBox="0 0 201.02 50"><defs><style>.cls-1,.cls-2{fill:#fff;}.cls-2{fill-opacity:0.8;}.cls-3{fill:#3fa9f5;}.cls-4{fill:#fe8344;}.cls-5{opacity:0.8;}</style></defs><g id="Layer_2" data-name="Layer 2"><g id="Layer_1-2" data-name="Layer 1"><path class="cls-1" d="M83.72,14.19V40.87h-6.5v-16l-6,16H66l-6-16v16H53.51V14.19h7.67l7.49,18.47,7.41-18.47ZM94.89,19.4v5.4h8.7v5h-8.7v5.85h9.84v5.21H88.39V14.19h16.34V19.4Zm24-5.21a15.45,15.45,0,0,1,7.37,1.68,11.71,11.71,0,0,1,4.87,4.71,13.61,13.61,0,0,1,1.75,7,13.78,13.78,0,0,1-1.75,7,11.84,11.84,0,0,1-4.9,4.71,15.52,15.52,0,0,1-7.34,1.67H109V14.19Zm-.42,21.06a7.82,7.82,0,0,0,5.74-2,7.61,7.61,0,0,0,2-5.7,7.77,7.77,0,0,0-2-5.74,7.79,7.79,0,0,0-5.74-2.05h-3.07V35.25Z"/><path class="cls-2" d="M151.26,27.09a5.86,5.86,0,0,1,3.61,2.24,6.64,6.64,0,0,1,1.48,4.22,6.56,6.56,0,0,1-1.07,3.65,7.07,7.07,0,0,1-3,2.54,10.85,10.85,0,0,1-4.6.91H137.12V14.24h10.07a10.82,10.82,0,0,1,4.64.92,6.69,6.69,0,0,1,2.92,2.47,6.11,6.11,0,0,1,1,3.42,5.91,5.91,0,0,1-1.22,3.8A7.1,7.1,0,0,1,151.26,27.09Zm-9.81-1.75h5.36a5.18,5.18,0,0,0,3.31-.95,3.42,3.42,0,0,0,1.21-2.81,3.39,3.39,0,0,0-1.21-2.78,4.91,4.91,0,0,0-3.31-1h-5.36Zm5.85,11.78a5.22,5.22,0,0,0,3.46-1.06,3.68,3.68,0,0,0,1.26-3A3.87,3.87,0,0,0,150.69,30a5.26,5.26,0,0,0-3.54-1.14h-5.7v8.25ZM170.14,41a10.92,10.92,0,0,1-5.36-1.33,9.88,9.88,0,0,1-3.76-3.8,11.61,11.61,0,0,1-1.37-5.7,11.25,11.25,0,0,1,1.41-5.67,9.72,9.72,0,0,1,3.83-3.8,11.77,11.77,0,0,1,10.87,0,9.81,9.81,0,0,1,3.84,3.8A11.25,11.25,0,0,1,181,30.17a11.06,11.06,0,0,1-1.45,5.66,10.19,10.19,0,0,1-3.95,3.84A11.44,11.44,0,0,1,170.14,41Zm0-3.77a6.34,6.34,0,0,0,3.11-.79,6.09,6.09,0,0,0,2.4-2.4,7.64,7.64,0,0,0,.91-3.87,7.79,7.79,0,0,0-.87-3.84,6,6,0,0,0-2.32-2.4,6.54,6.54,0,0,0-6.23,0,5.75,5.75,0,0,0-2.25,2.4,8.14,8.14,0,0,0-.83,3.84,7.46,7.46,0,0,0,1.71,5.24A5.77,5.77,0,0,0,170.14,37.23Zm24.12-7.18L201,40.65h-4.9l-4.52-7.1-4.26,7.1h-4.52l6.76-10.29-6.76-10.64h4.9l4.52,7.1,4.26-7.1H201Z"/><polygon class="cls-3" points="24.27 50 0 42.06 0 10.75 24.27 18.92 24.27 50"/><polygon class="cls-4" points="25.73 49.9 50 41.96 50 10.65 25.73 18.82 25.73 49.9"/><path class="cls-1" d="M10.2,23.65V36.92l-1.43-.64V28.42L7.46,35.69,6.3,35.17,5,27v7.59l-1.43-.64V21.48L5.24,22l1.65,9.45L8.52,23.1Zm2.46,3.45v2.74l1.92.72v2.59l-1.92-.76v3l2.17.92V39l-3.6-1.6V24l3.6,1.18v2.7Zm5.3-.92a3.08,3.08,0,0,1,1.62,1.43,9.35,9.35,0,0,1,1.07,2.92A18.46,18.46,0,0,1,21,34.47a14.64,14.64,0,0,1-.39,3.64,3.94,3.94,0,0,1-1.08,2.09,1.39,1.39,0,0,1-1.61.18l-2.2-1V25.46Zm-.1,11.17a.91.91,0,0,0,1.27-.55,6.88,6.88,0,0,0,.45-2.89,9.88,9.88,0,0,0-.45-3.26,2.27,2.27,0,0,0-1.27-1.55l-.67-.24v8.2Z"/><g class="cls-5"><path class="cls-1" d="M33.32,32a1,1,0,0,1,1,.58,3.11,3.11,0,0,1,.4,1.67,4.79,4.79,0,0,1-.29,1.68,4,4,0,0,1-.81,1.38,2.87,2.87,0,0,1-1.24.83l-2.84,1v-11L32.22,27a1.79,1.79,0,0,1,1.25-.15,1.3,1.3,0,0,1,.79.72,3.05,3.05,0,0,1,.27,1.36,4.5,4.5,0,0,1-.33,1.77A3.77,3.77,0,0,1,33.32,32Zm-2.65.31,1.45-.58A1.79,1.79,0,0,0,33,31a2.59,2.59,0,0,0,.33-1.34A1.35,1.35,0,0,0,33,28.59a.78.78,0,0,0-.89-.06l-1.45.61Zm1.58,4.37a1.73,1.73,0,0,0,.93-.8,2.65,2.65,0,0,0,.34-1.39,1.6,1.6,0,0,0-.36-1.18.84.84,0,0,0-.95-.12l-1.54.6v3.46Zm6.16-.53A1.73,1.73,0,0,1,37,36.09a2.5,2.5,0,0,1-1-1.3,6.31,6.31,0,0,1-.37-2.34A8.9,8.9,0,0,1,36,29.84a6.44,6.44,0,0,1,1-2.08,3.63,3.63,0,0,1,1.46-1.2,1.72,1.72,0,0,1,1.47,0,2.25,2.25,0,0,1,1,1.28,6.64,6.64,0,0,1,.38,2.4,9.08,9.08,0,0,1-.39,2.7A6.43,6.43,0,0,1,39.89,35,3.34,3.34,0,0,1,38.41,36.16Zm0-1.67a2,2,0,0,0,.84-.66,3.91,3.91,0,0,0,.65-1.31,6.32,6.32,0,0,0,.24-1.82,4.74,4.74,0,0,0-.23-1.63,1.46,1.46,0,0,0-.63-.82,1,1,0,0,0-.84,0,2,2,0,0,0-.84.69,4.07,4.07,0,0,0-.6,1.29A6.38,6.38,0,0,0,36.77,32a3.74,3.74,0,0,0,.46,2.13A1,1,0,0,0,38.41,34.49Zm6.5-5.69,1.83,4.25-1.32.47L44.2,30.69l-1.15,3.67-1.22.43,1.82-5.36-1.82-4.12,1.32-.55,1.22,2.77,1.15-3.75,1.22-.51Z"/></g><path class="cls-3" d="M1,9.24c8.42,3.49,15.37,4.55,23.79,8L49.17,8.94,24.76,0Z"/><path class="cls-1" d="M26.71,10,18.9,7.52l2.92-1.19,8.73,2.41Z"/><path class="cls-1" d="M18.42,9.24l3.4,1.21,8.25-3L27.16,6.22Z"/></g></g></svg>